<svg xmlns="http://www.w3.org/2000/svg" width="960" height="960"><path d="M689.098 178.58c-49.012-30.517-95.25-42.538-141.488-73.055C518.943 86.105 479.178 39.867 445.887.102 439.414 63.911 419.994 89.804 397.8 108.3c-47.163 36.99-76.755 48.087-117.445 70.281C246.14 196.15 60.263 307.122 60.263 545.71 60.263 784.296 260.936 960 483.802 960c222.866 0 416.14-161.832 416.14-406.893 0-245.06-181.252-356.031-210.844-374.527z" fill="#436f4d"/><path d="M613.987 752.752c14.796 0 30.517.925 41.614 8.323 11.097 7.398 17.57 24.044 21.27 33.291 3.698 9.248 0 14.796-7.399 18.495-6.473 3.7-7.398 1.85-13.871-10.172-6.473-12.022-12.022-24.044-44.388-24.044-32.367 0-42.54 11.097-58.26 24.044-15.721 12.947-21.27 17.57-26.818 10.172-5.549-7.398-3.7-14.796 6.473-24.043 10.173-9.248 26.818-24.044 42.539-30.517 15.72-6.474 24.044-5.549 38.84-5.549zM460.477 858.174c18.495 14.797 46.238 26.818 105.422 26.818 59.185 0 100.799-16.645 119.294-30.517 8.323-6.473 12.022-.924 12.947 2.775.924 3.699 2.774 9.247-3.7 15.72-4.623 4.624-47.162 34.217-97.099 38.84-49.937 4.624-117.444 7.398-158.133-29.592-6.474-6.473-4.624-15.72 0-19.42 4.624-3.699 8.323-6.473 13.871-6.473 5.549 0 4.624 0 7.398 1.85z" fill="#fff"/><path d="M233.912 787.893c70.281-.925 83.228-12.947 145.187-40.69C713.86 597.394 775.819 460.53 787.84 429.088c12.022-31.442 29.592-82.303 11.097-138.713-3.57-10.89-6.172-19.635-8.051-26.67-44.486-49.744-88.651-76.887-101.995-85.226-48.087-30.517-95.25-42.539-141.488-73.056C518.737 86.927 478.972 39.765 445.681 0c-6.473 63.808-24.968 90.626-48.087 108.197-47.163 36.99-76.755 48.087-117.444 70.281C245.934 196.973 60.057 307.02 60.057 545.607c0 76.175 20.46 145.94 55.563 205.624l9.17-.328c19.42 17.57 49.937 37.915 109.122 36.99z" fill="#cd2a3e"/><path d="M688.892 178.478c-48.087-30.517-95.25-42.539-141.488-73.056C518.737 86.927 478.972 39.765 445.681 0c-6.473 63.808-24.968 90.626-48.087 108.197-47.163 36.99-76.755 48.087-117.444 70.281C245.934 196.973 60.057 307.02 60.057 545.607c0 76.175 20.46 145.94 55.563 205.624 74.844 127.247 216.267 208.667 367.976 208.667 222.866 0 416.14-161.833 416.14-406.893 0-134.578-54.661-228.709-108.85-289.301-44.485-49.744-88.653-76.887-101.994-85.226zm112.406 108.255c60.716 75.909 91.503 165.495 91.503 266.272 0 58.479-11.138 113.72-33.105 164.193-20.838 47.88-50.844 90.297-89.187 126.08-75.793 70.73-177.686 109.684-286.913 109.684-54.038 0-107.065-10.322-157.608-30.68-49.645-19.995-94.383-48.627-132.972-85.102C111.75 760.37 66.993 656.82 66.993 545.607c0-99.055 32.152-187.073 95.562-261.604 48.444-56.94 100.681-88.498 120.893-99.423 9.812-5.352 19.017-10.076 27.919-14.644 27.903-14.322 54.258-27.849 90.508-56.28 19.33-14.691 39.92-37.96 48.69-97.041 30.547 36.332 65.993 77.16 93.08 94.636 24.044 15.869 48.705 26.988 72.555 37.742 22.562 10.172 45.891 20.691 68.977 35.342.038.026.866.54.866.54 67.485 42.134 103.44 87.085 115.255 101.858z" fill="#8e2a3e"/><path d="M450.305 18.495c12.946 37.915 11.097 57.335 11.097 65.658s-4.624 30.517-19.42 41.614c-6.473 4.624-8.323 8.323-8.323 9.248 0 3.699 8.323 6.473 8.323 14.796 0 10.172-4.624 30.517-53.636 79.529s-119.294 92.475-173.854 119.293c-54.56 26.818-80.454 24.969-87.852 12.022-7.398-12.946 2.774-41.614 36.99-79.529s142.413-92.476 142.413-92.476l135.014-94.325 7.398-36.065" fill="#db6977"/><path d="M450.305 17.57c-8.323 61.034-26.818 79.53-51.787 98.95-41.614 31.441-82.303 50.861-91.55 55.485-24.044 12.022-110.971 60.109-156.284 129.466-13.872 21.27 0 29.592 2.774 31.441 2.774 1.85 34.216 5.549 101.723-35.14 67.507-40.69 97.1-64.733 135.015-104.498 20.344-21.27 23.119-33.291 23.119-38.84 0-6.473-4.624-9.247-12.022-11.097-3.7-.924-4.624-2.774 0-5.548 4.623-2.774 24.043-12.022 28.667-15.721 4.624-3.7 26.818-18.495 27.743-42.539.925-24.044-.925-40.69-7.398-61.959zM242.235 689.869c.924-72.131 68.432-139.639 153.51-140.563 108.196-.925 183.101 107.271 237.662 106.347 46.238-.925 135.014-91.551 178.478-91.551 46.238 0 59.184 48.087 59.184 76.755 0 28.667-9.247 80.453-31.442 112.82-22.194 32.366-36.065 44.388-61.958 42.539-33.291-2.775-99.874-106.347-142.413-108.197-53.636-1.85-170.155 111.896-261.706 111.896-55.485 0-72.131-8.323-90.626-20.345-27.743-19.42-41.614-49.012-40.69-89.701z" fill="#fff"/><path d="M798.938 290.374c18.495 56.41.925 107.271-11.097 138.713-12.022 31.442-73.98 168.306-408.742 318.117-61.96 27.742-74.906 39.764-145.187 40.689-59.185.925-89.702-19.42-109.122-36.99l-9.17.328c74.844 127.247 216.267 208.667 367.976 208.667 222.866 0 416.14-161.833 416.14-406.893 0-134.578-54.661-228.709-108.85-289.301 1.88 7.035 4.481 15.78 8.052 26.67z" fill="none"/></svg>
