<?xml version="1.0" encoding="utf-8"?>
<!-- Generator: Adobe Illustrator 16.0.0, SVG Export Plug-In . SVG Version: 6.00 Build 0)  -->
<!DOCTYPE svg PUBLIC "-//W3C//DTD SVG 1.1//EN" "http://www.w3.org/Graphics/SVG/1.1/DTD/svg11.dtd">
<svg version="1.1" id="Layer_1" xmlns="http://www.w3.org/2000/svg" xmlns:xlink="http://www.w3.org/1999/xlink" x="0px" y="0px"
	 width="180px" height="50px" viewBox="0 0 180 50" enable-background="new 0 0 180 50" xml:space="preserve">
<g>
	<path fill="#FFFFFF" d="M77.896,24.755c0,4.194-1.797,7.593-5.996,7.593s-6.016-3.398-6.016-7.593V10.404h-7.661v14.351
		c0,8.291,5.332,15.015,13.628,15.015s13.706-6.724,13.706-15.015l0.005-14.365h-7.676L77.896,24.755z"/>
	<rect x="154.79" y="1.635" fill="#FFFFFF" width="7.642" height="37.397"/>
	<polygon fill="#FFFFFF" points="168.071,2.094 169.849,2.094 169.849,6.928 171.152,6.928 171.152,2.094 172.93,2.094 172.93,1 
		168.071,1 	"/>
	<polygon fill="#FFFFFF" points="178.164,1 176.851,5.077 176.836,5.077 175.449,1 173.613,1 173.613,6.928 174.834,6.928 
		174.834,2.768 174.849,2.768 176.304,6.928 177.31,6.928 178.76,2.729 178.779,2.729 178.779,6.928 180,6.928 180,1 	"/>
	<path fill="#FFFFFF" d="M41.069,15.448c-0.088,0.171-0.088,0.273-0.381,0.264c-0.239-0.005-0.269-0.264-0.269-0.264l-0.815-5.005
		h-6.846v28.564h7.671V23.544c0-1.26,3.403-7.319,9.995-5.762c3.33,0.791,4.746,2.207,4.746,2.207v-8.701
		c-1.235-0.645-2.08-0.957-3.188-1.211C45.396,8.554,41.24,15.097,41.069,15.448z"/>
	<path fill="#FFFFFF" d="M103.403,9.843c-8.354,0-15.122,6.772-15.122,15.122v23.447h7.69V38.134l0.005,0.005v-3.848
		c0,0,0.01-0.308,0.288-0.312c0.249-0.005,0.303,0.161,0.366,0.312c0.581,1.445,3.779,6.958,10.879,5.229
		c6.353-1.792,11.016-7.627,11.016-14.556C118.525,16.615,111.753,9.843,103.403,9.843z M103.408,32.621
		c-4.229,0-7.651-3.428-7.651-7.656c0-4.224,3.423-7.651,7.651-7.651s7.656,3.428,7.656,7.651
		C111.064,29.193,107.637,32.621,103.408,32.621z"/>
	<path fill="#FFFFFF" d="M136.567,9.843c-8.354,0-15.122,6.772-15.122,15.122c0,6.929,4.663,12.769,11.016,14.556
		c7.1,1.729,10.298-3.784,10.879-5.229c0.063-0.151,0.117-0.317,0.366-0.312c0.278,0.005,0.288,0.312,0.288,0.312l0.005,4.727h7.69
		V24.965C151.689,16.615,144.922,9.843,136.567,9.843z M136.562,32.621c-4.229,0-7.656-3.428-7.656-7.656
		c0-4.224,3.428-7.651,7.656-7.651s7.651,3.428,7.651,7.651C144.214,29.193,140.791,32.621,136.562,32.621z"/>
	<path fill="#FFFFFF" d="M9.365,1.62H0v37.339h8.726c11.465,0,20.576-2.241,20.576-18.672C29.302,3.7,20.703,1.62,9.365,1.62z
		 M10.894,32.562l-3.169-0.083V8.09h3.086c7.07,0,10.762,0.996,10.762,12.197C21.572,31.972,17.388,32.562,10.894,32.562z"/>
</g>
</svg>
