<?xml version="1.0" encoding="utf-8"?>
<!-- Generator: Adobe Illustrator 18.1.1, SVG Export Plug-In . SVG Version: 6.00 Build 0)  -->
<svg version="1.1" id="Layer_1" xmlns="http://www.w3.org/2000/svg" xmlns:xlink="http://www.w3.org/1999/xlink" x="0px" y="0px"
	 viewBox="-80 -532.3 200 100" enable-background="new -80 -532.3 200 100" xml:space="preserve">
<g id="Layer_1_1_">
	<path id="Facebook__x28_alt_x29__13_" opacity="0.1" fill="#FFFFFF" enable-background="new    " d="M-77.1-514.3v-8.3H-80v-3.6
		h2.9v-1.4c0-2.5,1.8-4.7,4.1-4.7h3.1v3.6h-2.9c-0.3,0-0.7,0.4-0.7,1v1.5h3.6v3.6h-3.6v8.3H-77.1z"/>
	<path id="Facebook__x28_alt_x29__1_" fill="#00324C" d="M-77.1-514.3v-8.3H-80v-3.6h2.9v-1.4c0-2.5,1.8-4.7,4.1-4.7h3.1v3.6h-2.9
		c-0.3,0-0.7,0.4-0.7,1v1.5h3.6v3.6h-3.6v8.3H-77.1z"/>
</g>
<g id="guides" display="none">
</g>
<g>
	<g>
		<g>
			<path fill="#FFFFFF" d="M26.3-520.3l-0.8,0.8c-0.3,0.3-0.8,0.3-1.1,0l-3.1-3.1c-0.8,0.4-1.6,0.7-2.6,0.7c-2.8,0-5.2-2.4-5.2-5.2
				c0-2.8,2.3-5.1,5.1-5.1c2.8,0,5.3,2.4,5.3,5.2c0,1-0.3,1.9-0.8,2.7l3.1,3.1C26.5-521,26.6-520.6,26.3-520.3z M18.7-523.5
				c1.9,0,3.5-1.6,3.5-3.6c0-1.9-1.7-3.7-3.7-3.7c-1.9,0-3.5,1.6-3.5,3.5C15-525.3,16.8-523.5,18.7-523.5z"/>
		</g>
	</g>
</g>
<path fill="#FFFFFF" d="M9-506.3v14.5c0,0.5-0.9,0.9-1.4,0.9S6-491.1,6-491.8c0,0,0-12.9,0-13.1s0-0.3-0.3-0.5
	c-0.3-0.2-9.6-5.6-9.6-5.6c-0.2-0.1-1-0.2-1.8,0.4c-0.7,0.6-1,1.1-1.1,1.3l9.3,5.2c0.3,0.2,0.5,0.5,0.5,0.7v14.2
	c0,0.3-0.2,0.6-0.5,0.7c-0.2,0.1-0.3,0.1-0.4,0.1c-0.2,0-0.4,0-0.5-0.1c-0.3-0.2-9.3-6.3-9.9-6.7c-0.3-0.2-0.7-0.6-0.7-0.9v-13.6
	c0-0.3,0-0.7,0.4-1.3c0.9-1.4,4-3.1,5.6-2.2l11.6,6C8.8-506.9,9-506.7,9-506.3z"/>
<polygon fill="#FFFFFF" points="27,-506.6 27,-515.8 17,-515.8 17,-506.6 11,-506.6 22,-494.8 33,-506.6 "/>
<path fill="#EDEDED" d="M59.5-512.6c-0.5-0.6-1.9-1.9-4.9-2.9c-3-1.1-3.9-2-3.9-4c0-1.2,0.9-0.8,1.3-3c0.1-0.9,1,0,1.1-2.1
	c0-0.8-0.4-1-0.4-1s0.2-1.2,0.3-2.1c0.1-1.2-0.6-4.1-4.8-4.1c-4.2,0-4.9,2.9-4.8,4.1c0,0.9,0.3,2.1,0.3,2.1s-0.4,0.2-0.4,1
	c0.1,2,1,1.2,1.1,2.1c0.4,2.1,1.3,1.7,1.3,3c0,1.9-1,2.8-3.9,4c-3,1.1-4.4,2.4-4.9,2.9c-0.6,0.7-1.1,5.8-1.1,5.8h25
	C60.6-506.8,60-511.9,59.5-512.6z"/>
<path fill="#D15F22" d="M86.3-532.3h-19c-1.7,0-3,1.3-3,3v12c0,1.7,1.3,3,3,3h9l7,5v-5h3c1.7,0,3-1.3,3-3v-12
	C89.3-531,88-532.3,86.3-532.3z"/>
<path fill="#E8931B" d="M-72-490.9c-4.4,0-8,3.6-8,8c0,9,8,17,8,17s8-8,8-17C-64-487.3-67.6-490.9-72-490.9z M-72-478.4
	c-2.5,0-4.5-2-4.5-4.5s2-4.5,4.5-4.5s4.5,2,4.5,4.5S-69.5-478.4-72-478.4z"/>
<g>
	<path fill="#004873" d="M52.6-502.3c-0.7-1.7-2.6-3-4.5-3c-1.9,0-3.8,1.3-4.5,3v2h-2v18h13v-18h-2V-502.3z M45.6-500.3v-2
		c0.7-0.7,1.5-1.2,2.5-1.2s1.8,0.5,2.5,1.2v2H45.6z"/>
	<path fill="#004873" d="M35.6-497.3v12c0,1.7,1.3,3,3,3h1v-18h-1C36.9-500.3,35.6-499,35.6-497.3z"/>
	<path fill="#004873" d="M57.6-500.3h-1v18h1c1.7,0,3-1.3,3-3v-12C60.6-499,59.3-500.3,57.6-500.3z"/>
</g>
<g>
	<g>
		<path fill="#00324C" d="M-24.2-475.3c-1,1.9-1.7,3.9-2.1,6.1c-1.1-1.8-1.7-3.9-1.7-6.2c0-1.9,0.5-3.8,1.3-5.4c0.6,1,1.4,2,2.2,2.9
			c-0.1,0.3-0.2,0.6-0.2,1C-24.7-476.3-24.5-475.7-24.2-475.3z M-23.3-479.2c-0.9-1-1.7-2.1-2.4-3.3c0.9-1.2,2-2.3,3.3-3.1
			c1.4,0.6,2.8,1.2,4,2.1c-0.1,0.3-0.2,0.5-0.2,0.8c0,0.2,0.1,0.4,0.1,0.6c-1.1,0.8-2.1,1.7-3,2.7c-0.2-0.1-0.5-0.1-0.7-0.1
			C-22.6-479.4-22.9-479.3-23.3-479.2z M-20.6-464.4c-1.6-0.6-3-1.6-4.1-2.9c0.2-2.6,0.9-5,2.1-7.1c0.2,0,0.4,0,0.5,0
			c0.5,0,0.9-0.1,1.4-0.4c2.3,1.6,5.1,2.8,8.1,3.2C-16-469.8-18.7-467.3-20.6-464.4z M-17.3-484.8c-0.9-0.7-1.9-1.3-3-1.8
			c1.3-0.5,2.8-0.8,4.2-0.8c2.2,0,4.2,0.6,6,1.6c-1.5,0.3-2.9,0.7-4.2,1.3c-0.4-0.4-1-0.7-1.7-0.7
			C-16.4-485.2-16.8-485.1-17.3-484.8z M-19.7-476.1c0.1-0.3,0.1-0.5,0.1-0.8c0-0.5-0.2-0.9-0.4-1.4c0.7-0.8,1.6-1.6,2.6-2.3
			c0.4,0.3,0.9,0.5,1.5,0.5c0.4,0,0.7-0.1,1-0.2c1.6,1.8,2.8,3.9,3.5,6.3c-0.3,0.2-0.5,0.5-0.7,0.8
			C-14.9-473.6-17.5-474.6-19.7-476.1z M-10.6-469.6c0.1,0.5,0.1,0.9,0.1,1.4c0,1.3-0.1,2.6-0.4,3.8c-1.5,0.7-3.2,1.1-5.1,1.1
			c-1,0-2-0.1-2.9-0.3c1.9-2.7,4.4-4.9,7.5-6.4C-11.2-469.9-10.9-469.7-10.6-469.6z M-4-475.4c0,0.6-0.1,1.1-0.1,1.7
			c-1.1,0.3-2.2,0.5-3.4,0.6c-0.4-0.9-1.3-1.5-2.3-1.6c-0.8-2.6-2.1-4.9-3.9-6.9c0.2-0.3,0.3-0.7,0.3-1.1c0-0.1,0-0.2,0-0.3
			c1.7-0.7,3.5-1.2,5.5-1.4C-5.5-482.1-4-478.9-4-475.4z M-7.4-471.3c0.9-0.1,1.9-0.2,2.8-0.5c-0.8,2.5-2.3,4.6-4.3,6.1
			c0.1-0.8,0.2-1.7,0.2-2.6c0-0.5-0.1-1-0.1-1.5C-8.1-470-7.7-470.6-7.4-471.3z"/>
	</g>
</g>
<path fill="#00324C" d="M114.5-532.3H95c-1.5,0-2.8,1.2-2.8,2.8v13.9c0,1.5,1.2,2.8,2.8,2.8h19.4c1.5,0,2.8-1.2,2.8-2.8v-13.9
	C117.3-531.1,116-532.3,114.5-532.3z M97.1-530.2c1.2,0,2.1,0.9,2.1,2.1s-0.9,2.1-2.1,2.1S95-527,95-528.1
	C95-529.3,96-530.2,97.1-530.2z M114.5-515.6H95v-8.3h19.4V-515.6L114.5-515.6z M114.5-526.7h-13.9v-2.8h13.9V-526.7z"/>
<path fill="#FFFFFF" d="M115-500.4h-8v-8c0-0.6-0.4-1-1-1h-4c-0.6,0-1,0.4-1,1v8h-8c-0.6,0-1,0.4-1,1v4c0,0.6,0.4,1,1,1h8v8
	c0,0.6,0.4,1,1,1h4c0.6,0,1-0.4,1-1v-8h8c0.6,0,1-0.4,1-1v-4C116-500,115.6-500.4,115-500.4z"/>
<path fill="#FFFFFF" d="M-63.4-449.3l-11.1-11.1c-0.5-0.5-1.4-0.5-2,0c-0.5,0.5-0.5,1.4,0,2l10.1,10.1l-10.1,10.1
	c-0.5,0.5-0.5,1.4,0,2c0.5,0.5,1.4,0.5,2,0l11.1-11.1C-62.8-447.9-62.8-448.8-63.4-449.3z"/>
<path fill="#FFFFFF" d="M-34.2-488.7c-2.9-2.9-7.7-2.9-10.6,0c-0.1,0.1-2.2,2.2-2.2,2.2s-2.1-2.1-2.2-2.2c-2.9-2.9-7.7-2.9-10.6,0
	c-2.9,2.9-2.9,7.7,0,10.6c0.1,0.1,12.8,12.2,12.8,12.2s12.7-12.1,12.8-12.2C-31.3-481.1-31.3-485.8-34.2-488.7z"/>
<g>
	<path fill="#FFFFFF" d="M86-506.3H67c-1.7,0-3,1.3-3,3v12c0,1.7,1.3,3,3,3h9l7,5v-5h3c1.7,0,3-1.3,3-3v-12
		C89-505,87.7-506.3,86-506.3z"/>
</g>
<g>
	<g>
		<path fill="#FFFFFF" d="M16.9-478.4H26l-7.4,5.6l2.7,9.9l-7.7-5.9l-7.7,5.9l2.7-9.9L1-478.4h9.1l3.4-9.5L16.9-478.4z"/>
	</g>
</g>
<path fill="#FFFFFF" d="M46.6-461.9c-0.9,0-1.8,0.3-2.5,0.9l-7.6-4.3c0-0.2,0.1-0.3,0.1-0.5c0-0.2,0-0.4-0.1-0.5l7.6-4.3
	c0.7,0.5,1.5,0.9,2.5,0.9c2.2,0,4-1.8,4-4c0-2.2-1.8-4-4-4s-4,1.8-4,4c0,0.2,0,0.4,0.1,0.5l-7.6,4.3c-0.7-0.5-1.5-0.9-2.5-0.9
	c-2.2,0-4,1.8-4,4c0,2.2,1.8,4,4,4c0.9,0,1.8-0.3,2.5-0.9l7.6,4.3c0,0.2-0.1,0.3-0.1,0.5c0,2.2,1.8,4,4,4s4-1.8,4-4
	C50.6-460.1,48.8-461.9,46.6-461.9z"/>
<g>
	<path opacity="0.1" fill="#FFFFFF" enable-background="new    " d="M-30.8-527.7c0,0.2,0,0.3,0,0.5c0,4.9-3.7,10.5-10.5,10.5
		c-2.1,0-4-0.6-5.7-1.7c0.3,0,0.6,0.1,0.9,0.1c1.7,0,3.3-0.6,4.6-1.6c-1.6,0-3-1.1-3.5-2.6c0.2,0,0.5,0.1,0.7,0.1c0.3,0,0.7,0,1-0.1
		c-1.7-0.3-3-1.8-3-3.6c0,0,0,0,0,0c0.5,0.3,1.1,0.4,1.7,0.5c-1-0.7-1.6-1.8-1.6-3.1c0-0.7,0.2-1.3,0.5-1.9c1.8,2.2,4.5,3.7,7.6,3.9
		c-0.1-0.3-0.1-0.6-0.1-0.8c0-2,1.7-3.7,3.7-3.7c1.1,0,2,0.4,2.7,1.2c0.8-0.2,1.6-0.5,2.3-0.9c-0.3,0.9-0.9,1.6-1.6,2
		c0.7-0.1,1.5-0.3,2.1-0.6C-29.5-528.8-30.1-528.2-30.8-527.7z"/>
	<path fill="#00324C" d="M-30.8-528.7c0,0.2,0,0.3,0,0.5c0,4.9-3.7,10.5-10.5,10.5c-2.1,0-4-0.6-5.7-1.7c0.3,0,0.6,0.1,0.9,0.1
		c1.7,0,3.3-0.6,4.6-1.6c-1.6,0-3-1.1-3.5-2.6c0.2,0,0.5,0.1,0.7,0.1c0.3,0,0.7,0,1-0.1c-1.7-0.3-3-1.8-3-3.6c0,0,0,0,0,0
		c0.5,0.3,1.1,0.4,1.7,0.5c-1-0.7-1.6-1.8-1.6-3.1c0-0.7,0.2-1.3,0.5-1.9c1.8,2.2,4.5,3.7,7.6,3.9c-0.1-0.3-0.1-0.6-0.1-0.8
		c0-2,1.7-3.7,3.7-3.7c1.1,0,2,0.4,2.7,1.2c0.8-0.2,1.6-0.5,2.3-0.9c-0.3,0.9-0.9,1.6-1.6,2c0.7-0.1,1.5-0.3,2.1-0.6
		C-29.5-529.8-30.1-529.2-30.8-528.7z"/>
</g>
<g>
	<path opacity="0.1" fill="#FFFFFF" enable-background="new    " d="M-62.9-514L-62.9-514c-0.4,0.4-1,0.7-1.7,0.7
		c-0.7,0-1.3-0.3-1.7-0.7c-0.4-0.4-0.7-1-0.7-1.7c0-0.7,0.3-1.2,0.7-1.7c0.4-0.4,1-0.7,1.7-0.7c0.7,0,1.3,0.3,1.7,0.7
		c0.4,0.4,0.7,1,0.7,1.7C-62.2-515-62.5-514.5-62.9-514z M-58.6-513.3L-58.6-513.3c0-2.3-0.9-4.4-2.5-6c-1.6-1.6-3.7-2.5-6-2.5v-3.4
		c3.3,0,6.2,1.3,8.4,3.5c2.1,2.2,3.5,5.1,3.5,8.4L-58.6-513.3L-58.6-513.3z M-52.5-513.3c0-8-6.5-14.6-14.5-14.6v-3.4
		c5,0,9.5,2,12.7,5.3c3.3,3.3,5.3,7.8,5.3,12.7H-52.5z"/>
	<path fill="#00324C" d="M-62.9-515L-62.9-515c-0.4,0.4-1,0.7-1.7,0.7c-0.7,0-1.3-0.3-1.7-0.7c-0.4-0.4-0.7-1-0.7-1.7
		c0-0.7,0.3-1.2,0.7-1.7c0.4-0.4,1-0.7,1.7-0.7c0.7,0,1.3,0.3,1.7,0.7c0.4,0.4,0.7,1,0.7,1.7C-62.2-516-62.5-515.5-62.9-515z
		 M-58.6-514.3L-58.6-514.3c0-2.3-0.9-4.4-2.5-6c-1.6-1.6-3.7-2.5-6-2.5v-3.4c3.3,0,6.2,1.3,8.4,3.5c2.1,2.2,3.5,5.1,3.5,8.4
		L-58.6-514.3L-58.6-514.3z M-52.5-514.3c0-8-6.5-14.6-14.5-14.6v-3.4c5,0,9.5,2,12.7,5.3c3.3,3.3,5.3,7.8,5.3,12.7H-52.5z"/>
</g>
<g>
	<path opacity="0.1" fill="#FFFFFF" enable-background="new    " d="M-12-531.3h-12c-1.7,0-3,1.3-3,3v6c0,1.7,1.3,3,3,3h5.8l5.2,4
		v-4h1c1.7,0,3-1.3,3-3v-6C-9-530-10.3-531.3-12-531.3z"/>
	<path fill="#00324C" d="M-12-532.3h-12c-1.7,0-3,1.3-3,3v6c0,1.7,1.3,3,3,3h5.8l5.2,4v-4h1c1.7,0,3-1.3,3-3v-6
		C-9-531-10.3-532.3-12-532.3z"/>
</g>
<g>
	<path opacity="0.1" fill="#FFFFFF" enable-background="new    " d="M-74-511.3c-3.3,0-6,2.7-6,6c0,6.8,6,12,6,12s6-5.2,6-12
		C-68-508.6-70.7-511.3-74-511.3z M-74-501.9c-1.9,0-3.4-1.5-3.4-3.4c0-1.9,1.5-3.4,3.4-3.4s3.4,1.5,3.4,3.4
		C-70.6-503.4-72.1-501.9-74-501.9z"/>
	<path fill="#00324C" d="M-74-512.3c-3.3,0-6,2.7-6,6c0,6.8,6,12,6,12s6-5.2,6-12C-68-509.6-70.7-512.3-74-512.3z M-74-502.9
		c-1.9,0-3.4-1.5-3.4-3.4c0-1.9,1.5-3.4,3.4-3.4s3.4,1.5,3.4,3.4C-70.6-504.4-72.1-502.9-74-502.9z"/>
</g>
<g>
	<path opacity="0.1" fill="#FFFFFF" enable-background="new    " d="M9-531.3H-5c-1.1,0-2,0.9-2,2v10c0,1.1,0.9,2,2,2H9
		c1.1,0,2-0.9,2-2v-10C11-530.4,10.1-531.3,9-531.3z M-3.5-529.8c0.8,0,1.5,0.7,1.5,1.5s-0.7,1.5-1.5,1.5s-1.5-0.7-1.5-1.5
		C-5-529.1-4.3-529.8-3.5-529.8z M9-519.3H-5v-6H9V-519.3z M9-527.3H-1v-2H9V-527.3z"/>
	<path fill="#00324C" d="M9-532.3H-5c-1.1,0-2,0.9-2,2v10c0,1.1,0.9,2,2,2H9c1.1,0,2-0.9,2-2v-10C11-531.4,10.1-532.3,9-532.3z
		 M-3.5-530.8c0.8,0,1.5,0.7,1.5,1.5s-0.7,1.5-1.5,1.5s-1.5-0.7-1.5-1.5C-5-530.1-4.3-530.8-3.5-530.8z M9-520.3H-5v-6H9V-520.3z
		 M9-528.3H-1v-2H9V-528.3z"/>
</g>
<g>
	<g opacity="0.1">
		<path fill="#FFFFFF" d="M-66-504.3v6c0,1.7,1.3,3,3,3v-12C-64.7-507.3-66-506-66-504.3z"/>
		<path fill="#FFFFFF" d="M-51-507.3v12c1.7,0,3-1.3,3-3v-6C-48-506-49.3-507.3-51-507.3z"/>
		<path fill="#FFFFFF" d="M-53-508.3c-0.6-1.7-2.3-3-4-3s-3.4,1.3-4,3v1h-1v12h10v-12h-1V-508.3z M-59-507.3v-1
			c0.6-0.7,1.1-1.2,2-1.2s1.4,0.5,2,1.2v1H-59z"/>
	</g>
	<g>
		<path fill="#00324C" d="M-66-505.3v6c0,1.7,1.3,3,3,3v-12C-64.7-508.3-66-507-66-505.3z"/>
		<path fill="#00324C" d="M-51-508.3v12c1.7,0,3-1.3,3-3v-6C-48-507-49.3-508.3-51-508.3z"/>
		<path fill="#00324C" d="M-53-509.3c-0.6-1.7-2.3-3-4-3s-3.4,1.3-4,3v1h-1v12h10v-12h-1V-509.3z M-59-508.3v-1
			c0.6-0.7,1.1-1.2,2-1.2s1.4,0.5,2,1.2v1H-59z"/>
	</g>
</g>
<g>
	<g opacity="0.1">
		<path fill="#FFFFFF" d="M-42.1-505.2c-0.7,1.4-1.3,2.9-1.6,4.5c-0.8-1.3-1.3-2.9-1.3-4.6c0-1.4,0.4-2.8,1-4c0.5,0.8,1,1.5,1.6,2.2
			c-0.1,0.2-0.2,0.5-0.2,0.7C-42.5-506-42.4-505.5-42.1-505.2z M-41.4-508.1c-0.7-0.7-1.3-1.6-1.8-2.5c0.7-0.9,1.5-1.7,2.5-2.3
			c1.1,0.4,2.1,0.9,3,1.6c-0.1,0.2-0.1,0.4-0.1,0.6c0,0.2,0,0.3,0.1,0.4c-0.8,0.6-1.6,1.3-2.3,2c-0.2,0-0.4-0.1-0.5-0.1
			C-40.9-508.3-41.2-508.2-41.4-508.1z M-39.5-497c-1.2-0.5-2.2-1.2-3.1-2.1c0.2-1.9,0.7-3.7,1.6-5.4c0.1,0,0.3,0,0.4,0
			c0.4,0,0.7-0.1,1-0.3c1.8,1.2,3.8,2.1,6.1,2.4C-36-501.1-38-499.2-39.5-497z M-36.9-512.3c-0.7-0.5-1.4-1-2.2-1.4
			c1-0.4,2.1-0.6,3.2-0.6c1.6,0,3.2,0.5,4.5,1.2c-1.1,0.2-2.2,0.5-3.2,1c-0.3-0.3-0.8-0.5-1.3-0.5
			C-36.3-512.6-36.6-512.5-36.9-512.3z M-38.8-505.8c0-0.2,0.1-0.4,0.1-0.6c0-0.4-0.1-0.7-0.3-1c0.5-0.6,1.2-1.2,1.9-1.8
			c0.3,0.2,0.7,0.4,1.1,0.4c0.3,0,0.5-0.1,0.7-0.2c1.2,1.4,2.1,2.9,2.6,4.7c-0.2,0.2-0.4,0.4-0.5,0.6
			C-35.2-503.9-37.1-504.7-38.8-505.8z M-32-501c0,0.4,0,0.7,0,1c0,1-0.1,1.9-0.3,2.8c-1.1,0.5-2.4,0.8-3.8,0.8
			c-0.7,0-1.5-0.1-2.2-0.2c1.4-2,3.3-3.7,5.6-4.8C-32.4-501.1-32.2-501-32-501z M-27-505.3c0,0.4,0,0.9-0.1,1.3
			c-0.8,0.2-1.6,0.4-2.5,0.5c-0.3-0.7-0.9-1.1-1.7-1.2c-0.6-1.9-1.6-3.6-2.9-5.2c0.1-0.2,0.2-0.5,0.2-0.8c0-0.1,0-0.2,0-0.2
			c1.3-0.5,2.7-0.9,4.1-1.1C-28.1-510.3-27-507.9-27-505.3z M-29.5-502.2c0.7,0,1.4-0.2,2.1-0.4c-0.6,1.8-1.7,3.4-3.2,4.5
			c0.1-0.6,0.1-1.3,0.1-1.9c0-0.4,0-0.7,0-1.1C-30.1-501.2-29.7-501.7-29.5-502.2z"/>
	</g>
	<g>
		<path fill="#00324C" d="M-42.1-506.2c-0.7,1.4-1.3,2.9-1.6,4.5c-0.8-1.3-1.3-2.9-1.3-4.6c0-1.4,0.4-2.8,1-4c0.5,0.8,1,1.5,1.6,2.2
			c-0.1,0.2-0.2,0.5-0.2,0.7C-42.5-507-42.4-506.5-42.1-506.2z M-41.4-509.1c-0.7-0.7-1.3-1.6-1.8-2.5c0.7-0.9,1.5-1.7,2.5-2.3
			c1.1,0.4,2.1,0.9,3,1.6c-0.1,0.2-0.1,0.4-0.1,0.6c0,0.2,0,0.3,0.1,0.4c-0.8,0.6-1.6,1.3-2.3,2c-0.2,0-0.4-0.1-0.5-0.1
			C-40.9-509.3-41.2-509.2-41.4-509.1z M-39.5-498c-1.2-0.5-2.2-1.2-3.1-2.1c0.2-1.9,0.7-3.7,1.6-5.4c0.1,0,0.3,0,0.4,0
			c0.4,0,0.7-0.1,1-0.3c1.8,1.2,3.8,2.1,6.1,2.4C-36-502.1-38-500.2-39.5-498z M-36.9-513.3c-0.7-0.5-1.4-1-2.2-1.4
			c1-0.4,2.1-0.6,3.2-0.6c1.6,0,3.2,0.5,4.5,1.2c-1.1,0.2-2.2,0.5-3.2,1c-0.3-0.3-0.8-0.5-1.3-0.5
			C-36.3-513.6-36.6-513.5-36.9-513.3z M-38.8-506.8c0-0.2,0.1-0.4,0.1-0.6c0-0.4-0.1-0.7-0.3-1c0.5-0.6,1.2-1.2,1.9-1.8
			c0.3,0.2,0.7,0.4,1.1,0.4c0.3,0,0.5-0.1,0.7-0.2c1.2,1.4,2.1,2.9,2.6,4.7c-0.2,0.2-0.4,0.4-0.5,0.6
			C-35.2-504.9-37.1-505.7-38.8-506.8z M-32-502c0,0.4,0,0.7,0,1c0,1-0.1,1.9-0.3,2.8c-1.1,0.5-2.4,0.8-3.8,0.8
			c-0.7,0-1.5-0.1-2.2-0.2c1.4-2,3.3-3.7,5.6-4.8C-32.4-502.1-32.2-502-32-502z M-27-506.3c0,0.4,0,0.9-0.1,1.3
			c-0.8,0.2-1.6,0.4-2.5,0.5c-0.3-0.7-0.9-1.1-1.7-1.2c-0.6-1.9-1.6-3.6-2.9-5.2c0.1-0.2,0.2-0.5,0.2-0.8c0-0.1,0-0.2,0-0.2
			c1.3-0.5,2.7-0.9,4.1-1.1C-28.1-511.3-27-508.9-27-506.3z M-29.5-503.2c0.7,0,1.4-0.2,2.1-0.4c-0.6,1.8-1.7,3.4-3.2,4.5
			c0.1-0.6,0.1-1.3,0.1-1.9c0-0.4,0-0.7,0-1.1C-30.1-502.2-29.7-502.7-29.5-503.2z"/>
	</g>
</g>
<g>
	<path opacity="0.1" fill="#FFFFFF" enable-background="new    " d="M-12-508.3v10.5c0,0.3-0.6,0.7-1,0.7s-1-0.2-1-0.7
		c0,0,0-9.3,0-9.5s0-0.2-0.2-0.3c-0.2-0.1-7.1-4-7.1-4c-0.1,0-0.6-0.2-1.3,0.2c-0.6,0.3-0.7,0.5-0.8,0.7l7.1,4.1
		c0.2,0.1,0.3,0.3,0.3,0.5v10.2c0,0.2-0.1,0.4-0.3,0.5c-0.1,0.1-0.2,0.1-0.3,0.1c-0.1,0-0.3,0-0.4-0.1c-0.2-0.1-7-4.5-7.5-4.8
		c-0.2-0.1-0.5-0.4-0.5-0.6v-9.8c0-0.2,0-0.5,0.3-1c0.7-1,2.9-2.2,4-1.6l8.4,4.3C-12.1-508.7-12-508.5-12-508.3z"/>
	<path fill="#00324C" d="M-12-509.3v10.5c0,0.3-0.6,0.7-1,0.7s-1-0.2-1-0.7c0,0,0-9.3,0-9.5s0-0.2-0.2-0.3c-0.2-0.1-7.1-4-7.1-4
		c-0.1,0-0.6-0.2-1.3,0.2c-0.6,0.3-0.7,0.5-0.8,0.7l7.1,4.1c0.2,0.1,0.3,0.3,0.3,0.5v10.2c0,0.2-0.1,0.4-0.3,0.5
		c-0.1,0.1-0.2,0.1-0.3,0.1c-0.1,0-0.3,0-0.4-0.1c-0.2-0.1-7-4.5-7.5-4.8c-0.2-0.1-0.5-0.4-0.5-0.6v-9.8c0-0.2,0-0.5,0.3-1
		c0.7-1,2.9-2.2,4-1.6l8.4,4.3C-12.1-509.7-12-509.5-12-509.3z"/>
</g>
</svg>
