<?xml version="1.0" encoding="utf-8"?>
<!-- Generator: Adobe Illustrator 19.2.0, SVG Export Plug-In . SVG Version: 6.00 Build 0)  -->
<svg version="1.1" id="Thumbs_up" xmlns="http://www.w3.org/2000/svg" xmlns:xlink="http://www.w3.org/1999/xlink" x="0px" y="0px"
	 viewBox="0 0 42.3 42.5" style="enable-background:new 0 0 42.3 42.5;" xml:space="preserve">
<style type="text/css">
	.st0{fill:#939393;}
	.st1{fill:#D8D8D8;}
</style>
<path class="st0" d="M13.6,29.4c-0.1-0.4,3.5-3.6,1.4-6.3c-0.5-0.6-2.2,3-4.6,4.6C9.1,28.6,6,30.5,6,31.5v6.8c0,1.3,4.9,2.6,8.6,2.6
	c1.4,0,3.4-8.6,3.4-9.9C18,29.7,13.8,29.7,13.6,29.4z M5,29.5c-0.7,0-3,0.4-3,3.1v4.8c0,2.7,2.3,3,3,3c0.7,0-1-0.6-1-2.3v-6.4
	C4,30,5.7,29.5,5,29.5z"/>
<g>
	<path class="st0" d="M30.4,33.6c0.1,0.4-3.5,3.6-1.4,6.3c0.5,0.6,2.2-3,4.6-4.6c1.3-0.9,4.4-2.8,4.4-3.9v-6.8
		c0-1.3-4.9-2.6-8.6-2.6C28,22,26,30.6,26,31.9C26,33.3,30.2,33.3,30.4,33.6z M39,33.5c0.7,0,3-0.4,3-3.1v-4.8c0-2.7-2.3-3-3-3
		c-0.7,0,1,0.6,1,2.3v6.4C40,33,38.3,33.5,39,33.5z"/>
</g>
<path class="st1" d="M13.6,7.4C13.5,7,17.2,3.7,15,1.1c-0.5-0.6-2.2,3-4.6,4.6C9.1,6.6,6,8.5,6,9.5v6.8c0,1.3,4.9,2.6,8.6,2.6
	C16,19,18,10.4,18,9.1C18,7.7,13.8,7.7,13.6,7.4z M5,7.5c-0.7,0-3,0.4-3,3.1v4.8c0,2.7,2.3,3,3,3c0.7,0-1-0.6-1-2.3V9.8
	C4,8,5.7,7.5,5,7.5z"/>
<g>
	<path class="st1" d="M30.4,11.6c0.1,0.4-3.5,3.6-1.4,6.3c0.5,0.6,2.2-3,4.6-4.6c1.3-0.9,4.4-2.8,4.4-3.9V2.6C38,1.3,33.1,0,29.4,0
		C28,0,26,8.6,26,9.9C26,11.3,30.2,11.3,30.4,11.6z M39,11.5c0.7,0,3-0.4,3-3.1V3.6c0-2.7-2.3-3-3-3c-0.7,0,1,0.6,1,2.3v6.4
		C40,11,38.3,11.5,39,11.5z"/>
</g>
</svg>
