<?xml version="1.0" encoding="utf-8"?>
<!-- Generator: Adobe Illustrator 19.2.0, SVG Export Plug-In . SVG Version: 6.00 Build 0)  -->
<svg version="1.1" id="LinkedIn_w_x2F__circle" xmlns="http://www.w3.org/2000/svg" xmlns:xlink="http://www.w3.org/1999/xlink"
	 x="0px" y="0px" viewBox="0 0 20 20" style="enable-background:new 0 0 20 20;" xml:space="preserve">
<style type="text/css">
	.st0{fill:#0077B5;}
</style>
<path class="st0" d="M10,0.4c-5.3,0-9.6,4.3-9.6,9.6s4.3,9.6,9.6,9.6s9.6-4.3,9.6-9.6S15.3,0.4,10,0.4z M7.7,14H5.7V7.7h1.9V14z
	 M6.7,7c-0.6,0-1-0.4-1-1c0-0.5,0.4-1,1-1s1,0.4,1,1C7.7,6.5,7.3,7,6.7,7z M14.8,14h-1.9v-3.5c0-0.8-0.3-1.4-1-1.4
	c-0.5,0-0.9,0.4-1,0.7c-0.1,0.1-0.1,0.3-0.1,0.5V14H8.8V9.7c0-0.8,0-1.4-0.1-2h1.7l0.1,0.9h0c0.3-0.4,0.9-1,1.9-1
	c1.3,0,2.2,0.9,2.2,2.7V14z"/>
</svg>
